<svg xmlns="http://www.w3.org/2000/svg" display="none">
  <symbol id="discord" viewBox="0 0 40 30">
    <path d="M33.8602 2.48809C31.3104 1.33816 28.5773 0.488218 25.7191 0.00491662C25.6937 3.01345e-05 25.6673 0.00317916 25.6437 0.0139283C25.6201 0.0246773 25.6005 0.0424947 25.5875 0.0649127C25.2375 0.679872 24.8475 1.48149 24.5742 2.11478C21.5429 1.66187 18.4611 1.66187 15.4298 2.11478C15.1254 1.41293 14.7821 0.728576 14.4015 0.0649127C14.3886 0.0422187 14.3691 0.0239983 14.3456 0.012683C14.3221 0.00136768 14.2956 -0.00250453 14.2699 0.00158335C11.4134 0.484885 8.68023 1.33483 6.12873 2.48642C6.10678 2.49563 6.08817 2.51133 6.0754 2.53142C0.889076 10.1559 -0.532497 17.5921 0.16579 24.9349C0.167733 24.9529 0.173316 24.9703 0.182197 24.9861C0.191079 25.0018 0.203074 25.0156 0.217453 25.0266C3.24458 27.2305 6.62093 28.9094 10.2051 29.9929C10.2301 30.0006 10.2568 30.0006 10.2818 29.9929C10.3068 29.9852 10.3288 29.9701 10.3451 29.9496C11.1164 28.9181 11.7999 27.8238 12.3883 26.6782C12.3965 26.6625 12.4012 26.6453 12.4021 26.6276C12.4031 26.61 12.4002 26.5923 12.3937 26.5759C12.3872 26.5595 12.3773 26.5446 12.3646 26.5324C12.3519 26.5201 12.3367 26.5107 12.32 26.5048C11.2434 26.0994 10.2003 25.6102 9.2002 25.0416C9.18223 25.0313 9.16708 25.0168 9.15613 24.9992C9.14517 24.9817 9.13874 24.9617 9.13742 24.941C9.1361 24.9204 9.13993 24.8997 9.14856 24.8809C9.15718 24.8621 9.17035 24.8457 9.18686 24.8333C9.39685 24.6783 9.60684 24.5166 9.80682 24.355C9.82482 24.3404 9.84651 24.3312 9.86946 24.3282C9.89241 24.3253 9.91573 24.3288 9.93681 24.3383C16.4814 27.2781 23.5693 27.2781 30.0372 24.3383C30.0583 24.3282 30.0819 24.3243 30.1051 24.3269C30.1284 24.3296 30.1505 24.3387 30.1688 24.3533C30.3688 24.5166 30.5771 24.6783 30.7888 24.8333C30.8055 24.8455 30.8188 24.8616 30.8277 24.8803C30.8366 24.8989 30.8408 24.9195 30.8398 24.9401C30.8388 24.9608 30.8327 24.9808 30.8221 24.9986C30.8114 25.0163 30.7965 25.0311 30.7788 25.0416C29.7822 25.6149 28.7456 26.0999 27.6573 26.5032C27.6406 26.5092 27.6254 26.5188 27.6127 26.5312C27.5999 26.5436 27.59 26.5586 27.5835 26.5752C27.5771 26.5918 27.5742 26.6095 27.5752 26.6273C27.5761 26.645 27.5808 26.6624 27.589 26.6782C28.1889 27.8231 28.8756 28.913 29.6305 29.9479C29.6462 29.9692 29.6681 29.9851 29.6931 29.9934C29.7182 30.0018 29.7452 30.0022 29.7705 29.9946C33.3609 28.9141 36.7427 27.2344 39.7732 25.0266C39.788 25.0163 39.8004 25.0029 39.8096 24.9874C39.8188 24.9719 39.8245 24.9545 39.8265 24.9366C40.6598 16.4472 38.4299 9.07099 33.9119 2.53475C33.9008 2.51351 33.8825 2.49695 33.8602 2.48809ZM13.3666 20.4636C11.3967 20.4636 9.77182 18.682 9.77182 16.4972C9.77182 14.3106 11.3651 12.5308 13.3666 12.5308C15.3831 12.5308 16.993 14.3256 16.9614 16.4972C16.9614 18.6837 15.3681 20.4636 13.3666 20.4636ZM26.6574 20.4636C24.6858 20.4636 23.0626 18.682 23.0626 16.4972C23.0626 14.3106 24.6542 12.5308 26.6574 12.5308C28.6739 12.5308 30.2838 14.3256 30.2521 16.4972C30.2521 18.6837 28.6756 20.4636 26.6574 20.4636Z"/>
  </symbol>
  <symbol id="twitter" viewBox="0 0 38 30">
    <path d="M37.926 3.56363C36.568 4.14942 35.0902 4.57102 33.568 4.73522C35.1484 3.79633 36.3319 2.31303 36.8964 0.563627C35.4134 1.44583 33.7888 2.06444 32.0947 2.39203C31.3866 1.63505 30.5302 1.032 29.5789 0.620465C28.6275 0.208931 27.6016 -0.00227123 26.5651 1.84189e-05C22.3713 1.84189e-05 18.9985 3.39942 18.9985 7.57102C18.9985 8.15682 19.0695 8.74262 19.1849 9.30623C12.9053 8.97782 7.30474 5.97782 3.58137 1.38463C2.90294 2.54343 2.54741 3.86285 2.55179 5.20564C2.55179 7.83285 3.88759 10.1494 5.92457 11.5118C4.72414 11.4646 3.55183 11.1346 2.50297 10.5488V10.642C2.50297 14.321 5.10356 17.3698 8.56954 18.071C7.91876 18.2401 7.2493 18.3265 6.57693 18.3284C6.08433 18.3284 5.61835 18.2796 5.14794 18.213C6.10652 21.213 8.89794 23.392 12.2219 23.463C9.62131 25.5 6.36392 26.6982 2.82694 26.6982C2.19232 26.6982 1.60652 26.676 0.998535 26.605C4.35356 28.7574 8.33433 30 12.6213 30C26.5385 30 34.1538 18.4704 34.1538 8.46303C34.1538 8.13463 34.1538 7.80623 34.1316 7.47782C35.605 6.39942 36.8964 5.06362 37.926 3.56363Z"/>
  </symbol>
  <symbol id="instagram" viewBox="0 0 31 30">
    <path d="M15.9223 9.99787C13.1679 9.99787 10.9201 12.2456 10.9201 15C10.9201 17.7544 13.1679 20.0021 15.9223 20.0021C18.6766 20.0021 20.9244 17.7544 20.9244 15C20.9244 12.2456 18.6766 9.99787 15.9223 9.99787ZM30.9249 15C30.9249 12.9286 30.9437 10.876 30.8273 8.80832C30.711 6.40669 30.1631 4.27525 28.407 2.51907C26.647 0.759128 24.5193 0.215011 22.1177 0.098682C20.0463 -0.0176466 17.9937 0.00111617 15.926 0.00111617C13.8546 0.00111617 11.802 -0.0176466 9.73434 0.098682C7.33272 0.215011 5.20128 0.762881 3.44509 2.51907C1.68515 4.27901 1.14104 6.40669 1.02471 8.80832C0.908379 10.8797 0.927142 12.9324 0.927142 15C0.927142 17.0676 0.908379 19.124 1.02471 21.1917C1.14104 23.5933 1.68891 25.7247 3.44509 27.4809C5.20503 29.2409 7.33272 29.785 9.73434 29.9013C11.8057 30.0176 13.8584 29.9989 15.926 29.9989C17.9974 29.9989 20.0501 30.0176 22.1177 29.9013C24.5193 29.785 26.6508 29.2371 28.407 27.4809C30.1669 25.721 30.711 23.5933 30.8273 21.1917C30.9474 19.124 30.9249 17.0714 30.9249 15ZM15.9223 22.6964C11.6631 22.6964 8.22582 19.2591 8.22582 15C8.22582 10.7409 11.6631 7.30355 15.9223 7.30355C20.1814 7.30355 23.6187 10.7409 23.6187 15C23.6187 19.2591 20.1814 22.6964 15.9223 22.6964ZM23.9339 8.7858C22.9395 8.7858 22.1365 7.98276 22.1365 6.98834C22.1365 5.99392 22.9395 5.19087 23.9339 5.19087C24.9284 5.19087 25.7314 5.99392 25.7314 6.98834C25.7317 7.22447 25.6854 7.45834 25.5952 7.67655C25.505 7.89476 25.3726 8.09303 25.2056 8.26C25.0386 8.42697 24.8404 8.55936 24.6221 8.64958C24.4039 8.73981 24.1701 8.7861 23.9339 8.7858Z"/>
  </symbol>
  <symbol id="youtube" viewBox="0 0 44 30">
    <path d="M22.4169 0H22.6544C24.8486 0.00800783 35.9661 0.0880866 38.9637 0.894208C39.8699 1.14023 40.6957 1.61978 41.3585 2.28492C42.0213 2.95007 42.4979 3.77752 42.7407 4.68458C43.0103 5.69891 43.1998 7.04155 43.328 8.42691L43.3547 8.70451L43.4134 9.39852L43.4347 9.67613C43.6082 12.1158 43.6296 14.4007 43.6323 14.8999V15.1001C43.6296 15.6179 43.6056 18.0577 43.4134 20.5988L43.392 20.8791L43.368 21.1567C43.2345 22.6835 43.037 24.1997 42.7407 25.3154C42.4986 26.2228 42.0223 27.0507 41.3593 27.7159C40.6964 28.3812 39.8703 28.8605 38.9637 29.1058C35.8673 29.9386 24.0985 29.9973 22.4676 30H22.0885C21.2637 30 17.8524 29.984 14.2756 29.8612L13.8218 29.8452L13.5896 29.8345L13.1331 29.8158L12.6767 29.7971C9.71377 29.6663 6.89235 29.4555 5.59241 29.1031C4.68616 28.8581 3.86022 28.3792 3.19733 27.7144C2.53444 27.0496 2.05788 26.2224 1.81538 25.3154C1.51909 24.2023 1.32157 22.6835 1.1881 21.1567L1.16675 20.8764L1.14539 20.5988C1.01366 18.7901 0.94066 16.9776 0.926514 15.1642L0.926514 14.8358C0.931852 14.2619 0.953206 12.2787 1.09735 10.0899L1.11603 9.81493L1.12404 9.67613L1.14539 9.39852L1.20412 8.70451L1.23081 8.42691C1.35894 7.04155 1.54846 5.69624 1.81805 4.68458C2.06014 3.77715 2.53652 2.94931 3.19944 2.28405C3.86235 1.61879 4.68851 1.13949 5.59508 0.894208C6.89502 0.547202 9.71644 0.333659 12.6793 0.200196L13.1331 0.181511L13.5922 0.165496L13.8218 0.157488L14.2782 0.138803C16.8186 0.0570551 19.36 0.0116724 21.9017 0.0026694H22.4169V0ZM18.0099 8.56838V21.429L29.1061 15.0013L18.0099 8.56838Z"/>
  </symbol>
  <symbol id="copy" viewBox="0 0 20 20">
  <path d="M8.08 8.86C8.13 8.53 8.24 8.24 8.38 7.99C8.52 7.74 8.72 7.53 8.97 7.37C9.21 7.22 9.51 7.15 9.88 7.14C10.11 7.15 10.32 7.19 10.51 7.27C10.71 7.36 10.89 7.48 11.03 7.63C11.17 7.78 11.28 7.96 11.37 8.16C11.46 8.36 11.5 8.58 11.51 8.8H13.3C13.28 8.33 13.19 7.9 13.02 7.51C12.85 7.12 12.62 6.78 12.32 6.5C12.02 6.22 11.66 6 11.24 5.84C10.82 5.68 10.36 5.61 9.85 5.61C9.2 5.61 8.63 5.72 8.15 5.95C7.67 6.18 7.27 6.48 6.95 6.87C6.63 7.26 6.39 7.71 6.24 8.23C6.09 8.75 6 9.29 6 9.87V10.14C6 10.72 6.08 11.26 6.23 11.78C6.38 12.3 6.62 12.75 6.94 13.13C7.26 13.51 7.66 13.82 8.14 14.04C8.62 14.26 9.19 14.38 9.84 14.38C10.31 14.38 10.75 14.3 11.16 14.15C11.57 14 11.93 13.79 12.24 13.52C12.55 13.25 12.8 12.94 12.98 12.58C13.16 12.22 13.27 11.84 13.28 11.43H11.49C11.48 11.64 11.43 11.83 11.34 12.01C11.25 12.19 11.13 12.34 10.98 12.47C10.83 12.6 10.66 12.7 10.46 12.77C10.27 12.84 10.07 12.86 9.86 12.87C9.5 12.86 9.2 12.79 8.97 12.64C8.72 12.48 8.52 12.27 8.38 12.02C8.24 11.77 8.13 11.47 8.08 11.14C8.03 10.81 8 10.47 8 10.14V9.87C8 9.52 8.03 9.19 8.08 8.86V8.86ZM10 0C4.48 0 0 4.48 0 10C0 15.52 4.48 20 10 20C15.52 20 20 15.52 20 10C20 4.48 15.52 0 10 0ZM10 18C5.59 18 2 14.41 2 10C2 5.59 5.59 2 10 2C14.41 2 18 5.59 18 10C18 14.41 14.41 18 10 18Z"/>
  </symbol>
</svg>

