<svg width="170" height="54" viewBox="0 0 170 54" fill="none" xmlns="http://www.w3.org/2000/svg">
<path d="M69.686 21.8832L69.686 27.4039L77.0994 27.4039L77.0994 30.9055L69.686 30.9055L69.686 36.7416L78.0458 36.7416L78.0458 40.3379L65.2695 40.3379L65.2695 18.287L78.0458 18.287L78.0458 21.8832L69.686 21.8832ZM101.523 40.3379L97.1069 40.3379L87.1067 25.2272L87.1067 40.3379L82.6902 40.3379L82.6902 18.287L87.1067 18.287L97.1069 33.4292L97.1069 18.287L101.523 18.287L101.523 40.3379ZM114.216 18.3185C116.53 18.3185 118.559 18.7707 120.305 19.675C122.071 20.5793 123.428 21.8727 124.374 23.5552C125.342 25.2166 125.825 27.1515 125.825 29.3597C125.825 31.568 125.342 33.5028 124.374 35.1643C123.428 36.8047 122.071 38.0771 120.305 38.9814C118.559 39.8857 116.53 40.3379 114.216 40.3379L106.519 40.3379L106.519 18.3185L114.216 18.3185ZM114.058 36.5839C116.372 36.5839 118.159 35.9529 119.421 34.6911C120.683 33.4292 121.314 31.6521 121.314 29.3597C121.314 27.0674 120.683 25.2797 119.421 23.9969C118.159 22.6929 116.372 22.041 114.058 22.041L110.935 22.041L110.935 36.5839L114.058 36.5839ZM143.359 18.3185L143.359 21.8832L134.179 21.8832L134.179 27.53L141.213 27.53L141.213 31.0317L134.179 31.0317L134.179 40.3379L129.762 40.3379L129.762 18.3185L143.359 18.3185ZM162.106 18.3185L162.106 21.8832L156.238 21.8832L156.238 40.3379L151.822 40.3379L151.822 21.8832L145.954 21.8832L145.954 18.3185L162.106 18.3185Z" fill="white"/>
<path d="M36.6422 29.6558C36.1989 31.5583 35.2632 33.2675 33.9792 34.6369L44.3804 45.1975L48.1649 41.355L36.6422 29.6558Z" fill="#52FF00"/>
<path d="M32.9825 1.40645L27.8128 -7.30324e-07L23.4562 16.508L19.523 1.60447L14.3532 3.01092L18.6028 19.1131L8.01815 8.36638L4.23364 12.2089L15.8437 23.9968L1.38523 20.0633L4.96595e-07 25.3122L15.7977 29.61C15.6168 28.818 15.5211 27.9927 15.5211 27.1447C15.5211 21.1423 20.3135 16.2765 26.2253 16.2765C32.1371 16.2765 36.9296 21.1423 36.9296 27.1447C36.9296 27.9872 36.8351 28.8074 36.6564 29.5948L51.0136 33.5007L52.3987 28.2518L36.5383 23.9369L50.9977 20.0031L49.6124 14.7543L33.7526 19.0689L44.3372 8.32226L40.5527 4.47978L29.1037 16.1042L32.9825 1.40645Z" fill="#52FF00"/>
<path d="M33.8744 34.7476C32.575 36.0951 30.9328 37.1007 29.0913 37.6189L32.8761 51.9602L38.0458 50.5537L33.8744 34.7476Z" fill="#52FF00"/>
<path d="M28.8981 37.671C28.0437 37.894 27.1482 38.0125 26.2253 38.0125C25.2366 38.0125 24.2792 37.8764 23.3702 37.6216L19.582 51.9759L24.7517 53.3823L28.8981 37.671Z" fill="#52FF00"/>
<path d="M23.1875 37.569C21.3741 37.0251 19.7611 36.0067 18.4882 34.6553L8.06152 45.2417L11.846 49.0842L23.1875 37.569Z" fill="#52FF00"/>
<path d="M18.4013 34.5616C17.1502 33.2017 16.2389 31.5153 15.8052 29.6421L1.40112 33.5608L2.78634 38.8096L18.4013 34.5616Z" fill="#52FF00"/>
</svg>
